<?xml version="1.0" encoding="UTF-8"?>
<svg version="1.1" xmlns="http://www.w3.org/2000/svg" width="32" height="32">
<path d="M0 0 C10.56 0 21.12 0 32 0 C32 10.56 32 21.12 32 32 C21.44 32 10.88 32 0 32 C0 21.44 0 10.88 0 0 Z " fill="#020302" transform="translate(0,0)"/>
<path d="M0 0 C1.36161311 0.96113866 2.69855198 1.95884159 4 3 C6.66761764 3.25124826 6.66761764 3.25124826 9 3 C9 3.99 9 4.98 9 6 C8.34 6 7.68 6 7 6 C7.103125 6.886875 7.20625 7.77375 7.3125 8.6875 C7 12 7 12 4.75 14.75 C2.48520262 16.60301604 0.61451988 17.78611577 -2 19 C-2.33 19.66 -2.66 20.32 -3 21 C-3 20.34 -3 19.68 -3 19 C-4.0725 18.9175 -5.145 18.835 -6.25 18.75 C-10 18 -10 18 -12.4375 16.5 C-14.77436829 12.76101074 -14.79669045 9.2910852 -14 5 C-10.29962455 -0.10396614 -6.03312375 -0.42337711 0 0 Z " fill="#164D28" transform="translate(20,2)"/>
<path d="M0 0 C1.9375 0.375 1.9375 0.375 4 1 C5.57255046 4.14510093 5.22572668 7.48765445 5.25 10.9375 C5.270625 11.66646484 5.29125 12.39542969 5.3125 13.14648438 C5.3516131 18.48053289 5.3516131 18.48053289 3.83959961 20.71435547 C1.24626854 22.52676176 -0.6189147 22.34082871 -3.76171875 22.29296875 C-4.87998047 22.28330078 -5.99824219 22.27363281 -7.15039062 22.26367188 C-8.31763672 22.23853516 -9.48488281 22.21339844 -10.6875 22.1875 C-11.86634766 22.17396484 -13.04519531 22.16042969 -14.25976562 22.14648438 C-17.17363411 22.11109326 -20.08658945 22.06171809 -23 22 C-23 21.01 -23 20.02 -23 19 C-23.66 19 -24.32 19 -25 19 C-25 18.01 -25 17.02 -25 16 C-24.195625 16.185625 -23.39125 16.37125 -22.5625 16.5625 C-21.716875 16.706875 -20.87125 16.85125 -20 17 C-19.67 16.67 -19.34 16.34 -19 16 C-16.32941149 15.85884839 -13.67567762 15.95752893 -11 16 C-10.67 15.01 -10.34 14.02 -10 13 C-7.62483284 11.39515733 -5.49678302 10.15179481 -2.75 9.3125 C-0.82599413 8.15807064 -0.82599413 8.15807064 -0.53125 6.09765625 C-0.27512347 4.07354517 -0.13135604 2.03601868 0 0 Z " fill="#090804" transform="translate(27,8)"/>
<path d="M0 0 C0 1.32 0 2.64 0 4 C1.32 4 2.64 4 4 4 C4 4.66 4 5.32 4 6 C-4.25 6 -12.5 6 -21 6 C-21 5.01 -21 4.02 -21 3 C-21.66 3 -22.32 3 -23 3 C-23 2.01 -23 1.02 -23 0 C-22.195625 0.185625 -21.39125 0.37125 -20.5625 0.5625 C-19.716875 0.706875 -18.87125 0.85125 -18 1 C-17.67 0.67 -17.34 0.34 -17 0 C-14.50944578 -0.07258446 -12.03363503 0.0036364 -9.54296875 0.0625 C-7.04184549 0.09888285 -7.04184549 0.09888285 -4.86328125 -0.5625 C-3 -1 -3 -1 0 0 Z " fill="#0D0A06" transform="translate(25,24)"/>
<path d="M0 0 C1.051875 0.5878125 1.051875 0.5878125 2.125 1.1875 C2.4877204 8.56281486 2.4877204 8.56281486 1 11.125 C-1.55602669 12.57341512 -3.97840247 12.86565583 -6.875 13.1875 C-9.49071277 10.57178723 -9.87126797 9.40022564 -9.9375 5.625 C-8.875 2.1875 -8.875 2.1875 -6.125 0.125 C-2.875 -0.8125 -2.875 -0.8125 0 0 Z " fill="#A58745" transform="translate(22.875,6.8125)"/>
<path d="M0 0 C2.31 0.33 4.62 0.66 7 1 C7.33 1.99 7.66 2.98 8 4 C6.35 4.33 4.7 4.66 3 5 C2.75571657 10.7974423 2.75571657 10.7974423 5 16 C6.65 15.67 8.3 15.34 10 15 C9.67 15.66 9.34 16.32 9 17 C8.34 17 7.68 17 7 17 C6.67 17.66 6.34 18.32 6 19 C6 18.34 6 17.68 6 17 C5.2575 16.9175 4.515 16.835 3.75 16.75 C0.48778646 15.8603054 -0.80954878 14.51496251 -3 12 C-2.67 11.34 -2.34 10.68 -2 10 C-2.66 9.67 -3.32 9.34 -4 9 C-4 8.01 -4 7.02 -4 6 C-3.34 6 -2.68 6 -2 6 C-1.67 5.34 -1.34 4.68 -1 4 C-0.34 3.67 0.32 3.34 1 3 C0.34 3 -0.32 3 -1 3 C-0.67 2.01 -0.34 1.02 0 0 Z " fill="#185B2D" transform="translate(11,4)"/>
<path d="M0 0 C6.75 0.75 6.75 0.75 9 3 C11.58354218 3.16687448 11.58354218 3.16687448 14 3 C14 3.99 14 4.98 14 6 C13.34 6 12.68 6 12 6 C12.061875 7.423125 12.061875 7.423125 12.125 8.875 C12 12 12 12 10 14 C9.67 11.36 9.34 8.72 9 6 C6.03 5.505 6.03 5.505 3 5 C2.67 4.01 2.34 3.02 2 2 C1.34 1.34 0.68 0.68 0 0 Z " fill="#1E592B" transform="translate(15,2)"/>
<path d="M0 0 C2 1 2 1 3 3 C2.67 3.33 2.34 3.66 2 4 C3.32 4.33 4.64 4.66 6 5 C4.02579865 7.52259061 3.03254358 7.9929808 -0.1875 8.6875 C-1.5796875 8.8421875 -1.5796875 8.8421875 -3 9 C-3.33 8.01 -3.66 7.02 -4 6 C-2.84338843 3.79192337 -1.77322566 1.77322566 0 0 Z " fill="#958141" transform="translate(19,11)"/>
<path d="M0 0 C2.96404505 2.80804268 5.44499019 5.18315774 7 9 C8.65 8.67 10.3 8.34 12 8 C11.67 8.66 11.34 9.32 11 10 C10.34 10 9.68 10 9 10 C8.67 10.66 8.34 11.32 8 12 C8 11.34 8 10.68 8 10 C7.2575 9.9175 6.515 9.835 5.75 9.75 C2.38795982 8.83307995 1.03535835 7.81818848 -1 5 C-0.75 2.25 -0.75 2.25 0 0 Z " fill="#20542A" transform="translate(9,11)"/>
<path d="M0 0 C4.29 0 8.58 0 13 0 C13 0.66 13 1.32 13 2 C6.565 2.495 6.565 2.495 0 3 C0 2.01 0 1.02 0 0 Z " fill="#4A3F22" transform="translate(8,24)"/>
<path d="M0 0 C1.9375 0.3125 1.9375 0.3125 4 1 C4.33 1.99 4.66 2.98 5 4 C6.65 4 8.3 4 10 4 C10.33 4.66 10.66 5.32 11 6 C8.03 6 5.06 6 2 6 C2 5.01 2 4.02 2 3 C1.34 3 0.68 3 0 3 C0 2.01 0 1.02 0 0 Z " fill="#1F1B12" transform="translate(2,24)"/>
<path d="M0 0 C-1.47257109 3.88223287 -3.47949708 4.97571082 -7 7 C-7.66 7.99 -8.32 8.98 -9 10 C-8.875 6.6875 -8.875 6.6875 -8 3 C-5.25818793 1.19157076 -3.32132707 0 0 0 Z " fill="#43A248" transform="translate(22,6)"/>
<path d="M0 0 C0.99 0.33 1.98 0.66 3 1 C3 2.32 3 3.64 3 5 C4.32 5 5.64 5 7 5 C7 5.66 7 6.32 7 7 C4.36 7 1.72 7 -1 7 C-0.67 4.69 -0.34 2.38 0 0 Z " fill="#221D16" transform="translate(22,23)"/>
<path d="M0 0 C0 0.99 0 1.98 0 3 C-0.66 3 -1.32 3 -2 3 C-1.95875 3.94875 -1.9175 4.8975 -1.875 5.875 C-2 9 -2 9 -4 11 C-4 7.7 -4 4.4 -4 1 C-2 0 -2 0 0 0 Z " fill="#2A3D1D" transform="translate(29,5)"/>
<path d="M0 0 C0.66 0.33 1.32 0.66 2 1 C0.47005208 2.20442708 -1.05989583 3.40885417 -2.58984375 4.61328125 C-4.27155077 6.05683091 -4.27155077 6.05683091 -5 9 C-5.66 9 -6.32 9 -7 9 C-6.875 6.75 -6.875 6.75 -6 4 C-2.9375 1.6875 -2.9375 1.6875 0 0 Z " fill="#C69B43" transform="translate(21,8)"/>
<path d="M0 0 C0.99 0.33 1.98 0.66 3 1 C3 1.99 3 2.98 3 4 C3.99 5.485 3.99 5.485 5 7 C2.5625 6.25 2.5625 6.25 0 5 C-0.875 2.9375 -0.875 2.9375 -1 1 C-0.67 0.67 -0.34 0.34 0 0 Z " fill="#173F21" transform="translate(7,13)"/>
</svg>
